<?xml version="1.0" encoding="UTF-8" standalone="no"?>
<svg width="48px" height="24px" viewBox="0 0 48 24" version="1.1" xmlns="http://www.w3.org/2000/svg" xmlns:xlink="http://www.w3.org/1999/xlink">
    <!-- Generator: Sketch 41.2 (35397) - http://www.bohemiancoding.com/sketch -->
    <title>alibaba</title>
    <desc>Created with Sketch.</desc>
    <defs></defs>
    <g id="Home" stroke="none" stroke-width="1" fill="none" fill-rule="evenodd">
        <g id="Home---EN" transform="translate(-800.000000, -1736.000000)" fill="#B8B8B8">
            <g id="footer" transform="translate(0.000000, 1450.000000)">
                <g id="social-media-icons" transform="translate(679.000000, 286.000000)">
                    <g id="alibaba" transform="translate(121.518519, 0.000000)">
                        <path d="M30.3461639,20.0923545 C27.2159825,20.3813497 26.9687397,19.0602431 29.6048427,16.2118521 L32.7764517,12.4552195 C33.517773,11.5882337 34.1356255,10.7626057 34.6300093,9.85456779 C36.5246892,6.59310815 36.5246892,4.03381427 34.6300093,2.17617683 L34.4653165,1.96979531 C33.8061381,1.3918048 33.0648168,0.937683958 32.1996197,0.648586839 C30.3461639,-0.0530695933 27.8748556,-0.176939254 24.9092652,0.235823793 C20.2962377,0.813712431 15.6830067,2.46496835 11.1522238,5.18959155 L10.6990641,5.43733087 C6.33297409,8.07944221 3.24381322,10.9690891 1.43147973,14.1065772 C-0.50432249,17.3678332 -0.463301968,19.9273308 1.47270382,21.7849682 L3.12024272,22.9821033 L3.40860783,23.1058711 C5.46808234,23.890345 7.65102556,24.1792384 9.95743751,23.890345 C12.8406815,23.5599919 15.8888218,22.4042146 19.1840014,20.3814516 L19.9665467,19.8446152 L19.1840014,20.0924564 C15.0238283,21.413563 11.5228336,21.9914516 8.68081371,21.7849682 L6.20940359,21.2895914 L6.04450719,21.2070796 L5.55042874,21.000698 C4.68533341,20.5052194 4.3969683,19.8033592 4.60288522,18.8539635 L4.85033159,18.1109493 C5.38573593,16.8312004 6.7037874,15.9643166 8.76326191,15.5101957 L8.51581553,11.1755725 L9.50448137,11.794819 L10.5342695,11.2995441 L12.0993602,10.0197952 L12.5525199,9.31793508 L11.6875264,7.29517205 L17.8658481,5.5613024 L27.1745548,3.33215784 L26.9274138,2.67165547 C26.7214969,2.30025022 26.3095613,1.88738531 25.774157,1.51577633 C30.5109585,2.25879056 33.064715,3.33215784 33.435223,4.65326444 L33.4766507,5.14853935 L33.4766507,5.68537579 L33.3117543,6.59341375 C32.9823686,7.54301323 32.323292,8.69879051 31.2935039,9.93728338 L26.762721,15.0150227 C25.4857918,16.2121577 24.4561055,17.8634137 23.7147842,19.9687904 C22.8910148,22.0329113 23.7558048,23.1060748 26.2272149,23.1474326 C28.6575027,23.1474326 31.9526823,22.4044184 35.9890813,20.9181862 C39.6548706,19.5146696 42.9500502,17.8220559 45.9156406,15.8818047 L46.8218582,15.2215061 L45.9157423,15.5926057 C38.5017155,18.3172289 33.3118561,19.8445133 30.3461639,20.0923545 Z" id="Shape"></path>
                        <path d="M33.4353248,4.65306071 C33.0648168,3.33195411 30.5110603,2.25858683 25.7742587,1.5155726 C26.3096631,1.88707971 26.7215987,2.29994463 26.9275156,2.67145174 L27.1746566,3.33195411 L17.8659499,5.56109867 L11.6876282,7.29496831 L12.5526217,9.31773135 L12.099462,10.0195915 L10.5343713,11.2993403 L9.50458316,11.7946152 L8.51591732,11.1753688 L8.7633637,15.509992 C6.70388919,15.9641128 5.38573593,16.8310986 4.85043338,18.1107455 L4.602987,18.8537597 C4.39707009,19.8031555 4.6854352,20.5050157 5.55053053,21.0004943 C4.85043338,20.1748664 4.72676109,19.3902906 5.17981901,18.6060204 C5.42675645,18.2346152 5.71522335,17.8630062 6.16828128,17.5326531 C6.99205072,16.8309967 7.93949246,16.4182337 8.92785294,16.2117503 L9.33968677,16.2117503 L9.54560368,12.2072764 L12.3053789,12.9504944 L15.229847,12.8265228 C16.135861,12.5787835 16.9596305,12.2486342 17.7011553,11.7945134 C18.4426801,11.3816484 19.1427773,10.8451176 19.7606298,10.1845134 C20.090219,10.4322527 20.2962377,11.2165229 20.3784824,12.4962717 L20.5431752,11.2991366 C20.5431752,10.1845134 20.0077708,9.40014135 19.019105,8.9046627 L19.6369575,9.64788067 L19.2251237,9.97802998 C18.4013543,10.6798901 17.4952384,11.216421 16.5477967,11.6292859 L16.1772887,11.7530537 C15.0238283,12.1659186 13.8294491,12.2898901 12.6347646,12.2071745 L12.0993602,12.1247645 L11.9758915,12.0834067 C11.5228336,12.0421508 11.1521221,11.8770252 10.8637569,11.6292859 L13.2940448,9.97802998 C13.1703725,9.31752762 12.9643538,8.65692338 12.6761922,8.07903474 L12.5936422,7.95516508 L12.3877253,7.70742576 C12.6346628,7.70742576 13.9117955,7.33602051 16.3416762,6.51029069 C18.7307399,5.68476459 22.5614256,4.73506324 27.7510815,3.66189969 L27.0922084,2.09315564 C30.9229959,3.00180479 33.0648168,4.03381427 33.4767524,5.14833562 L33.4353248,4.65306071 Z" id="Shape"></path>
                    </g>
                </g>
            </g>
        </g>
    </g>
</svg>