<?xml version="1.0" encoding="UTF-8" standalone="no"?>
<svg width="82px" height="82px" viewBox="0 0 82 82" version="1.1" xmlns="http://www.w3.org/2000/svg" xmlns:xlink="http://www.w3.org/1999/xlink">
    <!-- Generator: Sketch 41.2 (35397) - http://www.bohemiancoding.com/sketch -->
    <title>Icon - Design at our core</title>
    <desc>Created with Sketch.</desc>
    <defs></defs>
    <g id="Who-We-Are" stroke="none" stroke-width="1" fill="none" fill-rule="evenodd" stroke-linecap="round" stroke-linejoin="round">
        <g id="Who-We-Are---EN" transform="translate(-150.000000, -977.000000)" stroke="#87BCC2">
            <g id="1" transform="translate(41.000000, 978.000000)">
                <g id="Icon---Design-at-our-core" transform="translate(110.000000, 0.000000)">
                    <path d="M37.032,75.897 L35.328,79.999 L37.032,75.897 Z" id="Stroke-1"></path>
                    <polygon id="Stroke-3" points="33.169 70.696 31.111 69.847 33.668 63.689 35.726 64.539"></polygon>
                    <path d="M37.53,68.891 L34.445,67.617 L37.53,68.891 Z" id="Stroke-5"></path>
                    <polygon id="Stroke-7" points="72.661 58.846 69.574 60.12 71.28 64.225 74.368 62.947"></polygon>
                    <path d="M77.937,75.895 L79.646,79.99899 L77.937,75.895 Z" id="Stroke-9"></path>
                    <polygon id="Stroke-11" points="65.553 60.583 63.493 61.43 60.938 55.275 62.994 54.423"></polygon>
                    <path d="M66.33,56.653 L64.269,57.503 L66.33,56.653 Z" id="Stroke-13"></path>
                    <path d="M69.736,64.86 L73.572,74.094 L73.572,74.094 C74.281,75.79601 76.233,76.601 77.936,75.894 C79.642,75.19401 80.451,73.245 79.744,71.54201 L79.744,71.54201 L75.909,62.311 L69.736,64.86 Z" id="Stroke-15"></path>
                    <path d="M72.295,71.015 L78.467,68.466 L72.295,71.015 Z" id="Stroke-17"></path>
                    <path d="M61.642,45.37 L70.371,48.975 L61.642,45.37 Z" id="Stroke-19"></path>
                    <path d="M66.392,26.652 C66.392,31.559 62.405,35.536 57.489,35.536 C52.568,35.536 48.58,31.559 48.58,26.652 C48.58,21.746 52.568,17.771 57.489,17.771 C62.404,17.771 66.392,21.746 66.392,26.652 Z" id="Stroke-21"></path>
                    <path d="M61.938,26.652 C61.938,29.107 59.94601,31.096 57.48801,31.096 C55.02701,31.096 53.03001,29.107 53.03001,26.652 C53.03001,24.199 55.02701,22.21 57.48801,22.21 C59.946,22.209 61.938,24.199 61.938,26.652 Z" id="Stroke-23"></path>
                    <path d="M51.241,32.984 L39.057,62.312 L36.003,75.473 L38.06,76.323 L45.231,64.861 L46.937,60.759 C45.606,57.552 47.131,53.875 50.346,52.549 L57.411,35.533 C55.008,35.513 52.834,34.545 51.241,32.984 Z" id="Stroke-25"></path>
                    <path d="M63.73,32.982 C62.136,34.545 59.96001,35.513 57.55701,35.532 L68.037,60.754 L74.207,58.206 L63.73,32.982 Z" id="Stroke-27"></path>
                    <path d="M60.826,13.329 L60.826,3.334 L60.826,3.334 C60.825,1.492 59.325,0.002 57.486,0.002 C55.641,0.002 54.146,1.49 54.145,3.334 L54.145,3.334 L54.146,13.329 L60.826,13.329 Z" id="Stroke-29"></path>
                    <path d="M57.488,17.771 C58.057,17.771 58.615,17.828 59.155,17.93 L59.155,13.329 L55.816,13.329 L55.816,17.93 C56.358,17.827 56.913,17.771 57.488,17.771 Z" id="Stroke-31"></path>
                    <path d="M11.11,79.999 L0,79.999 L0,0 L11.112,0 C13.567,0 15.556,1.991 15.556,4.446 L15.556,4.446 L15.556,75.557 L15.555,75.557 C15.554,78.012 13.565,79.999 11.11,79.999 Z" id="Stroke-33"></path>
                    <path d="M0,3.333 L3.333,3.333 L0,3.333 Z" id="Stroke-35"></path>
                    <path d="M0,6.667 L3.333,6.667 L0,6.667 Z" id="Stroke-37"></path>
                    <path d="M0,10 L3.333,10 L0,10 Z" id="Stroke-39"></path>
                    <path d="M0,13.333 L5.556,13.333 L0,13.333 Z" id="Stroke-41"></path>
                    <path d="M0,16.668 L3.333,16.668 L0,16.668 Z" id="Stroke-43"></path>
                    <path d="M0,20.001 L3.333,20.001 L0,20.001 Z" id="Stroke-45"></path>
                    <path d="M0,23.334 L3.333,23.334 L0,23.334 Z" id="Stroke-47"></path>
                    <path d="M0,26.668 L5.556,26.668 L0,26.668 Z" id="Stroke-49"></path>
                    <path d="M0,30.001 L3.333,30.001 L0,30.001 Z" id="Stroke-51"></path>
                    <path d="M0,33.334 L3.333,33.334 L0,33.334 Z" id="Stroke-53"></path>
                    <path d="M0,36.667 L3.333,36.667 L0,36.667 Z" id="Stroke-55"></path>
                    <path d="M0,40.001 L5.556,40.001 L0,40.001 Z" id="Stroke-57"></path>
                    <path d="M0,43.333 L3.333,43.333 L0,43.333 Z" id="Stroke-59"></path>
                    <path d="M0,46.667 L3.333,46.667 L0,46.667 Z" id="Stroke-61"></path>
                    <path d="M0,50 L3.333,50 L0,50 Z" id="Stroke-63"></path>
                    <path d="M0,53.333 L5.556,53.333 L0,53.333 Z" id="Stroke-65"></path>
                    <path d="M0,56.666 L3.333,56.666 L0,56.666 Z" id="Stroke-67"></path>
                    <path d="M0,60 L3.333,60 L0,60 Z" id="Stroke-69"></path>
                    <path d="M0,63.333 L3.333,63.333 L0,63.333 Z" id="Stroke-71"></path>
                    <path d="M0,66.666 L5.556,66.666 L0,66.666 Z" id="Stroke-73"></path>
                    <path d="M0,70 L3.333,70 L0,70 Z" id="Stroke-75"></path>
                    <path d="M0,73.333 L3.333,73.333 L0,73.333 Z" id="Stroke-77"></path>
                    <path d="M0,76.666 L3.333,76.666 L0,76.666 Z" id="Stroke-79"></path>
                    <path d="M12.223,5 C12.223,5.92066 11.47666,6.667 10.556,6.667 C9.63534,6.667 8.889,5.92066 8.889,5 C8.889,4.07934 9.63534,3.333 10.556,3.333 C11.47666,3.333 12.223,4.07934 12.223,5 Z" id="Stroke-81"></path>
                    <path d="M26.666,11.112 L26.666,47.224 L26.666,11.112 Z" id="Stroke-83"></path>
                    <path d="M23.333,47.225 C23.333,48.142 24.08,48.891 25,48.891 C25.921,48.891 26.667,48.142 26.667,47.225 C26.667,48.142 27.415,48.891 28.334,48.891 C29.255,48.891 30.001,48.142 30.001,47.225 C30.001,48.142 29.255,48.891 28.334,48.891 C27.415,48.891 26.667,48.142 26.667,47.225 C26.667,48.142 25.921,48.891 25,48.891 C24.08,48.891 23.333,48.142 23.333,47.225 Z" id="Stroke-85"></path>
                    <path d="M25.556,0 C24.33,0 23.333,0.997 23.333,2.225 L23.333,2.224 L23.333,48.891 L26.666,62.224 L30,48.891 L30,2.223 L30,2.224 C30,0.998 29.004,0.001 27.777,0.001 L25.556,0 Z" id="Stroke-87"></path>
                    <path d="M23.333,6.667 L30,6.667 L23.333,6.667 Z" id="Stroke-89"></path>
                    <path d="M23.333,11.112 L30,11.112 L23.333,11.112 Z" id="Stroke-91"></path>
                </g>
            </g>
        </g>
    </g>
</svg>