<?xml version="1.0" encoding="utf-8"?>
<!-- Generator: Adobe Illustrator 18.0.0, SVG Export Plug-In . SVG Version: 6.00 Build 0)  -->
<!DOCTYPE svg PUBLIC "-//W3C//DTD SVG 1.1//EN" "http://www.w3.org/Graphics/SVG/1.1/DTD/svg11.dtd">
<svg version="1.1" id="Layer_1" xmlns="http://www.w3.org/2000/svg" xmlns:xlink="http://www.w3.org/1999/xlink" x="0px" y="0px"
	 viewBox="-6.5 0 80 80" enable-background="new -6.5 0 80 80" xml:space="preserve">
<title>Icon -  We go global</title>
<desc>Created with Sketch.</desc>
<g id="Who-We-Are">
	<g id="Who-We-Are---EN" transform="translate(-480.000000, -978.000000)">
		<g id="_x32_" transform="translate(363.000000, 978.000000)">
			<g id="Icon----We-go-global" transform="translate(117.000000, 0.000000)">
				<path id="Fill-1" fill="#87BCC2" d="M20.5,0c-0.5,0-0.9,0.4-1.7,0.9C7.4,8.1,0,20.7,0,33.5C0,39.8,1.7,46,5,51.8
					c7,12.3,20,18.6,33.1,18.9v7.5H27.9c-0.5,0-0.9,0.4-0.9,0.9c0,0.5,0.4,0.9,0.9,0.9h22.3c0.5,0,0.9-0.4,0.9-0.9
					c0-0.5-0.4-0.9-0.9-0.9H40v-7.5c5.7-0.2,12-1.7,17.2-4.8c0.5-0.2,0.7-0.9,0.4-1.3c-0.3-0.5-0.9-0.6-1.4-0.3
					c-5.1,3-11.7,4.5-17.2,4.5c-12.8,0-25.6-6-32.4-18c-3.2-5.6-4.8-11.4-4.8-17.4C1.9,21.2,9.2,8.8,20.5,2c0.4-0.3,0.9-0.5,0.9-1.1
					C21.4,0.4,21,0,20.5,0z M38.2,3.7C22.2,3.7,9.3,16.6,9.3,32.6c0,15.9,12.9,28.8,28.8,28.8C54.1,61.4,67,48.5,67,32.6
					C67,16.6,54.1,3.7,38.2,3.7z M38.2,5.6c3.4,0,6.7,0.7,9.7,1.8c-1,2.3-2.5,4.9-4.5,7.4c-2-2-4-3.7-6-5.1c-2.3-1.5-4.7-2.6-6.9-3
					C32.9,6,35.5,5.6,38.2,5.6z M49.6,8.1c4.7,2.2,8.7,5.7,11.5,10.1l-10.5,6.1c-1.8-3-3.8-5.8-5.9-8.2
					C46.8,13.5,48.4,10.7,49.6,8.1z M27.7,8.3c2.5-0.1,5.4,0.9,8.6,3c1.9,1.3,3.9,2.9,5.8,4.9c-2.3,2.6-5,5-8.2,7L25.5,8.8
					C26.2,8.5,27,8.4,27.7,8.3z M23.9,9.7l8.3,14.4c-3.3,1.8-6.8,3-10.2,3.7c-0.8-2.6-1.2-5.2-1.4-7.5C20.4,15.4,21.5,11.6,23.9,9.7
					z M19.6,13c-0.7,2.1-1,4.7-0.8,7.5c0.1,2.4,0.6,5,1.4,7.7c-3.2,0.5-6.2,0.6-8.7,0.3C12.4,22.4,15.4,17,19.6,13z M43.4,17.6
					c2,2.2,3.8,4.8,5.6,7.6l-10.4,6l-3.8-6.5C38.1,22.8,41,20.3,43.4,17.6z M62,19.9c2,3.8,3.2,8.1,3.2,12.7c0,0.8-0.1,1.5-0.1,2.3
					c-1.3-0.1-2.8-0.2-4.3-0.2c-1.6,0-3.4,0.2-5.2,0.5c-1-3-2.4-6.1-4.1-9.2L62,19.9z M33.2,25.7l3.8,6.5l-10.5,6
					c-1.6-2.9-2.9-5.8-3.8-8.7C26.1,28.9,29.7,27.6,33.2,25.7z M49.9,26.9c1.6,2.9,2.9,5.8,3.8,8.6c-3.5,0.7-7.1,2-10.6,3.8
					l-3.7-6.5L49.9,26.9z M20.7,29.9c1,3,2.4,6.1,4.1,9.2l-10.5,6.1c-2-3.8-3.2-8.1-3.2-12.7c0-0.8,0.1-1.6,0.1-2.3
					C14.1,30.5,17.3,30.5,20.7,29.9z M37.8,33.8l3.8,6.5c-3.4,2-6.3,4.5-8.6,7.2c-2-2.2-3.9-4.8-5.6-7.6L37.8,33.8z M60.8,36.5
					c1.4,0,2.8,0,4,0.1c-0.9,6.1-3.9,11.5-8.2,15.5c0.7-2.2,1-4.8,0.8-7.6c-0.1-2.4-0.6-5-1.4-7.7C57.7,36.7,59.3,36.6,60.8,36.5z
					 M54.3,37.3c0.8,2.6,1.2,5.2,1.4,7.5c0.3,4.9-0.8,8.7-3.2,10.6L44.1,41C47.4,39.2,50.9,38,54.3,37.3z M25.7,40.8
					c1.8,3,3.8,5.8,6,8.2c-2.2,2.7-3.9,5.5-5,8.1C22,54.8,18,51.2,15.2,46.8L25.7,40.8z M42.5,41.9l8.4,14.4
					c-2.8,1.1-6.7,0.2-10.8-2.5c-1.9-1.3-3.9-2.9-5.8-4.9C36.5,46.3,39.2,43.8,42.5,41.9z M33,50.3c2,2,4,3.7,6,5.1
					c2.4,1.6,4.7,2.6,7,3.1c-2.5,0.7-5.1,1.1-7.8,1.1c-3.4,0-6.7-0.6-9.7-1.8C29.4,55.4,31,52.8,33,50.3z"/>
			</g>
		</g>
	</g>
</g>
</svg>
