<?xml version="1.0" encoding="utf-8"?>
<!-- Generator: Adobe Illustrator 18.0.0, SVG Export Plug-In . SVG Version: 6.00 Build 0)  -->
<!DOCTYPE svg PUBLIC "-//W3C//DTD SVG 1.1//EN" "http://www.w3.org/Graphics/SVG/1.1/DTD/svg11.dtd">
<svg version="1.1" id="Layer_1" xmlns="http://www.w3.org/2000/svg" xmlns:xlink="http://www.w3.org/1999/xlink" x="0px" y="0px"
	 viewBox="-10.5 0 82 82" enable-background="new -10.5 0 82 82" xml:space="preserve">
<title>Icon</title>
<desc>Created with Sketch.</desc>
<g id="Who-We-Are">
	<g id="Who-We-Are---EN" transform="translate(-802.000000, -978.000000)">
		<g id="_x33_" transform="translate(682.000000, 978.000000)">
			<g id="Icon---We-deliver-with-love" transform="translate(120.000000, 0.000000)">
				<path id="Fill-1" fill="#87BCC2" d="M60.4,57.5L60.4,57.5c-2.5-5.1-8.7-7.2-13.8-4.7l-2.3,1.1l-1.1-2.3
					c-2.5-5.1-8.7-7.2-13.8-4.7c-5.6,2.8-8,9.7-5.2,15.4l8.8,18c0.4,0.8,1,1.3,1.8,1.6c0.3,0.1,0.7,0.2,1,0.2c0.5,0,1-0.1,1.4-0.3
					l17.9-8.8C60.8,70,63.2,63.1,60.4,57.5z M54.4,71.1L36.4,80c-0.3,0.2-0.6,0.2-1,0.1c-0.3-0.1-0.6-0.3-0.7-0.6l-8.8-17.9
					c-2.3-4.7-0.4-10.5,4.4-12.9c1.2-0.6,2.4-0.9,3.7-0.9c3.1,0,6.1,1.7,7.6,4.7l2,4l4-2c4.2-2,9.2-0.3,11.3,3.8
					C61,63,59.1,68.8,54.4,71.1z"/>
				<path id="Fill-3" fill="#87BCC2" d="M25.1,31.8L25.1,31.8c-3.4-2.6-8.3-1.9-10.9,1.5l-1,1.3l-1.3-1C8.6,31,3.7,31.7,1.1,35.1
					c-2.9,3.8-2.1,9.2,1.7,12.1L14.4,56c0.5,0.3,1,0.5,1.5,0.5c0.1,0,0.2,0,0.3,0c0.7-0.1,1.3-0.4,1.7-1l8.8-11.6
					C29.6,40.1,28.9,34.7,25.1,31.8z M25.3,42.7l-8.8,11.6c-0.1,0.1-0.3,0.2-0.4,0.3c-0.2,0-0.3,0-0.5-0.1L4,45.7
					c-2.9-2.3-3.5-6.5-1.3-9.5c1.2-1.5,2.9-2.3,4.7-2.3c1.2,0,2.5,0.4,3.5,1.2l2.8,2.1l2.1-2.8c2-2.6,5.6-3.1,8.2-1.1
					C26.9,35.5,27.5,39.8,25.3,42.7z"/>
				<path id="Fill-4" fill="#87BCC2" d="M31,39.5c0.1,0.7,0.4,1.3,1,1.7c0.4,0.3,1,0.5,1.5,0.5c0.1,0,0.2,0,0.4,0l14.5-2
					c4.7-0.7,8-5,7.4-9.7l0,0c-0.6-4.2-4.5-7.2-8.7-6.6l-1.6,0.2l-0.2-1.6c-0.6-4.2-4.5-7.2-8.7-6.6c-4.7,0.7-8,5-7.4,9.7L31,39.5z
					 M36.6,17.2c0.3,0,0.5-0.1,0.8-0.1c2.9,0,5.4,2.1,5.8,5.1l0.5,3.5l3.5-0.5c3.2-0.4,6.2,1.8,6.6,5c0.5,3.7-2.1,7.1-5.8,7.6
					l-14.5,2c-0.2,0-0.4,0-0.5-0.1c-0.1-0.1-0.2-0.3-0.2-0.4l-2-14.5C30.4,21.1,33,17.7,36.6,17.2z"/>
				<path id="Fill-5" fill="#87BCC2" d="M10,22.8l10.7,3.9c0.3,0.1,0.5,0.1,0.8,0.1c0.3,0,0.6-0.1,0.9-0.2c0.5-0.2,0.9-0.7,1.1-1.2
					l3.9-10.7c1.3-3.6-0.6-7.6-4.1-8.9l0,0c-3.2-1.2-6.8,0.5-8,3.7l-0.4,1l-1-0.4c-3.2-1.2-6.8,0.5-8,3.7C4.6,17.5,6.5,21.5,10,22.8
					z M7.7,14.6c0.7-1.8,2.3-2.9,4.1-2.9c0.5,0,1,0.1,1.5,0.3l2.8,1l1-2.8c0.8-2.3,3.4-3.4,5.6-2.6c2.6,1,4,3.9,3,6.5l-3.9,10.7
					c0,0.1-0.1,0.1-0.2,0.2c-0.1,0-0.1,0-0.2,0l-10.7-3.9C8.1,20.1,6.7,17.2,7.7,14.6z"/>
				<path id="Fill-6" fill="#87BCC2" d="M32.9,12c0.3,0.5,0.8,0.8,1.4,0.8c0.3,0,0.6-0.1,0.9-0.2l5.5-3.4c2-1.3,2.7-3.9,1.4-6l0,0
					c-1.1-1.8-3.6-2.4-5.4-1.3L36.5,2l-0.1-0.2C35.3,0,32.8-0.6,31,0.6c-2,1.2-2.7,3.9-1.4,6L32.9,12z M32,2.2
					C32.3,2,32.7,1.9,33,1.9c0.7,0,1.4,0.3,1.8,1l1.1,1.8l1.8-1.1c1-0.6,2.2-0.3,2.8,0.7c0.7,1.1,0.3,2.7-0.8,3.4l-5.3,3.2l-3.2-5.3
					C30.5,4.4,30.8,2.9,32,2.2z"/>
			</g>
		</g>
	</g>
</g>
</svg>
