<?xml version="1.0" encoding="utf-8"?>
<!-- Generator: Adobe Illustrator 18.0.0, SVG Export Plug-In . SVG Version: 6.00 Build 0)  -->
<!DOCTYPE svg PUBLIC "-//W3C//DTD SVG 1.1//EN" "http://www.w3.org/Graphics/SVG/1.1/DTD/svg11.dtd">
<svg version="1.1" id="Layer_1" xmlns="http://www.w3.org/2000/svg" xmlns:xlink="http://www.w3.org/1999/xlink" x="0px" y="0px"
	 viewBox="0 0 103 40" enable-background="new 0 0 103 40" xml:space="preserve">
<title>logo-lifa</title>
<desc>Created with Sketch.</desc>
<g id="Icons">
	<g id="logo-lifa">
		<g id="Logo-Lifa">
			<g id="Page-1">
				<path id="Fill-1" d="M31.7,11.7c0.1-0.1,0.2-0.2,0.3-0.3c0,9.4,0,18.7,0,28.1c-3,0-5.9,0-8.9,0c-0.2,0-0.4,0-0.6,0
					c0-9.4,0-18.7,0-28.1c0.1,0,0.1,0.1,0.2,0.1c0.9,1,2.1,1.6,3.4,1.9c0.1,0,0.3,0,0.4,0.1c0.2,0,0.3,0,0.5,0c0.2,0,0.4,0,0.6,0
					c0.1,0,0.3,0,0.4,0C29.4,13.3,30.7,12.7,31.7,11.7"/>
				<path id="Fill-3" d="M87.8,10.9c0.3,0,0.6,0,0.9,0c0.1,0,0.3,0,0.4,0c0.2,0,0.4,0,0.6,0c0.2,0,0.5,0.1,0.7,0.1
					c2.8,0.3,5.4,1.5,7.6,3.3c1.2,1.1,2.3,2.3,3.1,3.7c0.7,1.3,1.3,2.6,1.6,4c0.2,0.8,0.3,1.6,0.3,2.4c0,0.3,0,0.7,0,1v11
					c0,1,0,2,0,3.1c-3.2,0-6.3,0-9.5,0c0-1.7,0-3.3,0-5c0-2.6,0-5.3,0-7.9c0-0.4,0-0.7-0.1-1.1c0-0.3-0.1-0.6-0.1-0.9
					c-0.1-0.6-0.2-1.2-0.5-1.8c-0.3-0.6-0.8-1.2-1.4-1.6c-0.7-0.5-1.5-0.8-2.4-0.9c-0.2,0-0.4,0-0.5,0c-0.4,0-0.8,0-1.1,0.1
					c-1.3,0.3-2.5,1.1-3.2,2.3c-0.4,0.6-0.7,1.4-0.8,2.2c-0.1,0.8,0,1.6,0.2,2.4c0.2,0.6,0.6,1.2,1.1,1.7c0.2,0.2,0.4,0.4,0.6,0.6
					c0.8,0.7,1.9,1,3,1.1c0.2,0,0.5,0,0.7,0c0.2,0,0.4-0.1,0.6-0.1c0.7-0.1,1.4-0.3,2.1-0.6c0,3.2,0,6.5,0,9.7
					c-0.4,0.1-0.8,0.2-1.2,0.2c-0.2,0-0.4,0.1-0.6,0.1c-0.4,0.1-0.9,0.1-1.4,0.1c-0.4,0-0.7,0-1.1,0c-2.1-0.2-4.2-0.8-6-1.8
					c-1.2-0.6-2.3-1.4-3.3-2.4c-1-0.9-1.8-2-2.5-3.2c-1.1-1.9-1.7-4.1-1.8-6.2c-0.1-0.5,0-1,0-1.4c0.1-0.3,0-0.6,0.1-0.9
					c0.1-0.9,0.2-1.7,0.5-2.5c0.8-2.6,2.2-5,4.2-6.9c1-0.9,2.1-1.6,3.3-2.3c1.5-0.8,3.1-1.2,4.8-1.4c0.2,0,0.4,0,0.6,0
					C87.5,10.9,87.6,10.9,87.8,10.9"/>
				<path id="Fill-6" d="M0,0.7c3.5,0,6.9,0,10.4,0c0,8.2,0,16.5,0,24.7c0,0.2,0,0.5,0,0.7c0,0.6,0.1,1.1,0.2,1.7
					c0.1,0.7,0.5,1.3,1,1.7c0.5,0.5,1.3,0.8,2,0.9c0.3,0.1,0.6,0.1,0.9,0.1c0.5,0,1,0,1.4,0c0,1.8,0,3.5,0,5.3c0,1.2,0,2.4,0,3.6
					c-1.3,0-2.6,0-4,0c-0.3,0-0.6,0-0.9,0c-0.3-0.1-0.6,0-1-0.1c-1.4-0.2-2.8-0.6-4-1.2c-0.8-0.5-1.6-1-2.3-1.7
					c-0.9-0.9-1.6-1.9-2.2-3.1C1.2,32.6,1,31.8,0.8,31c-0.3-1.2-0.5-2.4-0.6-3.7c0-0.1,0-0.3,0-0.4c0-0.2,0-0.4,0-0.7
					c0-0.3,0-0.5-0.1-0.8c0-0.8,0-1.7,0-2.5V4C0,2.9,0,1.8,0,0.7"/>
				<path id="Fill-8" d="M54.2,0c0.6-0.1,1.2,0,1.9,0c0.2,0,0.4,0,0.6,0c0.3,0,0.5,0,0.8,0.1c2.8,0.4,5.5,1.6,7.7,3.4
					c1.4,1.2,2.5,2.6,3.3,4.3c0.7,1.3,1.2,2.6,1.5,4c0.1,0.5,0.1,0.9,0.2,1.4c0,0.2,0,0.3,0,0.5c0,0.2,0,0.4,0,0.6
					c0,0.2,0,0.5,0,0.7c0,0.8,0,1.6,0,2.4c-0.5,0-0.9,0-1.4,0c-3,0-6,0-9,0c0-0.6,0-1.3,0-1.9c0-0.2,0-0.4-0.1-0.6
					c0-0.1-0.1-0.3,0-0.4c-0.1-0.7-0.2-1.3-0.6-1.9c-0.3-0.5-0.6-0.9-1.1-1.3c-0.8-0.7-1.9-1-2.9-1c-0.2,0-0.4,0-0.6,0
					c-0.6,0.1-1.3,0.3-1.8,0.6c-0.6,0.4-1.1,0.9-1.5,1.5c-0.2,0.3-0.4,0.6-0.4,1c-0.2,0.6-0.2,1.2-0.3,1.9c-0.1,0.7,0,1.3,0,2
					c0,1,0,1.9,0,2.9c4,0,8,0,12,0c0,1.7,0,3.4,0,5.2c0,1.3,0,2.5,0,3.8c-3,0-5.9,0-8.9,0c-1,0-2.1,0-3.1,0c0,3.3,0,6.6,0,9.9
					c0,0.2,0,0.3,0,0.5c-3.4,0-6.8,0-10.2,0c-0.1,0-0.2,0-0.2-0.1v-23c0-0.1,0-0.3,0-0.4c0-0.4,0-0.8,0-1.1c0-0.3,0-0.5,0-0.8
					c0.1-1.5,0.4-2.9,0.8-4.3c0.4-1.3,1.1-2.6,1.9-3.7c0.7-1,1.5-1.9,2.5-2.7c0.5-0.4,1.1-0.8,1.7-1.2c1.2-0.7,2.4-1.3,3.7-1.7
					c0.8-0.2,1.5-0.3,2.3-0.4C53.6,0,53.9,0,54.2,0"/>
				<path id="Fill-11" fill="#ED2024" d="M26.5,0.2c0.8-0.1,1.6,0,2.4,0.2c0.9,0.3,1.8,0.9,2.4,1.7c0.2,0.2,0.4,0.5,0.5,0.8
					c0.4,0.8,0.6,1.6,0.5,2.4c0,0.2,0,0.4,0,0.7c-0.2,1.3-0.9,2.5-1.9,3.3c-0.7,0.6-1.6,0.9-2.5,1.1c-0.2,0-0.4,0-0.6,0
					c-0.9,0-1.8-0.2-2.6-0.7C24,9.3,23.4,8.8,23,8.2c-0.2-0.3-0.4-0.6-0.6-1c-0.2-0.6-0.4-1.2-0.3-1.9c0-0.2,0-0.4,0-0.6
					c0.1-1,0.6-2,1.2-2.8C24.1,1,25.3,0.4,26.5,0.2"/>
			</g>
		</g>
	</g>
</g>
</svg>
