<?xml version="1.0" encoding="UTF-8" standalone="no"?>
<svg width="24px" height="24px" viewBox="0 0 24 24" version="1.1" xmlns="http://www.w3.org/2000/svg" xmlns:xlink="http://www.w3.org/1999/xlink">
    <!-- Generator: Sketch 41.2 (35397) - http://www.bohemiancoding.com/sketch -->
    <title>taobao</title>
    <desc>Created with Sketch.</desc>
    <defs></defs>
    <g id="Home" stroke="none" stroke-width="1" fill="none" fill-rule="evenodd">
        <g id="Home---EN" transform="translate(-877.000000, -1736.000000)" fill="#B8B8B8">
            <g id="footer" transform="translate(0.000000, 1450.000000)">
                <g id="social-media-icons" transform="translate(679.000000, 286.000000)">
                    <g id="taobao" transform="translate(198.000000, 0.000000)">
                        <path d="M23.2770952,2.94688372 C23.0241742,2.48316279 22.7364894,2.05981395 22.3668213,1.68911628 C21.995759,1.3172093 21.5573069,0.983348837 21.0931072,0.729674419 C20.3140809,0.304 19.3467349,0.0919069767 18.3973285,0.0919069767 L5.58406008,0.0919069767 C4.61327483,0.0919069767 3.6746508,0.310046512 2.86383506,0.738325581 C2.39703273,0.984744186 1.97261628,1.31004651 1.60880419,1.68027907 C1.24331898,2.05218605 0.912504666,2.46986047 0.675013638,2.9427907 C0.276344746,3.73655814 0.0918360609,4.6615814 0.0918360609,5.60790698 L0.0918360609,18.392 C0.0918360609,19.3526512 0.247157982,20.3156279 0.67705857,21.1022326 C0.926261484,21.5580465 1.25252117,22.0194419 1.61466013,22.3853953 C1.98033125,22.7547907 2.41246268,23.0575814 2.86978395,23.3115349 C3.65661822,23.7487442 4.62117571,23.908093 5.58406008,23.908093 L18.3973285,23.908093 C19.3796397,23.908093 20.2934457,23.7664186 21.0912482,23.3126512 C21.5317453,23.0622326 22.0095159,22.744 22.3634751,22.3855814 C22.7281237,22.0163721 23.0327257,21.5622326 23.2823934,21.1019535 C23.7068099,20.3191628 23.8896454,19.3462326 23.8896454,18.392 L23.8896454,5.60790698 C23.8896454,4.64911628 23.7055085,3.73246512 23.2770952,2.94688372 Z M20.3481011,7.91423256 C19.4506546,6.18148837 16.4032404,5.7772093 13.8297857,6.31665116 C13.2731923,6.43013953 12.71632,6.54344186 12.1595406,6.65693023 C11.8049307,6.75060465 11.4501349,6.84427907 11.0954321,6.93795349 L11.0806528,6.93795349 C11.0757264,6.91823256 11.0708,6.89851163 11.0658735,6.8787907 C11.2308624,6.59023256 11.5398331,6.20595349 11.5832415,5.84334884 C10.8492036,5.6412093 10.1149799,5.43897674 9.38094208,5.23683721 C9.21344351,5.67562791 9.04594495,6.11460465 8.87835343,6.55330233 C8.51547086,7.39562791 8.04179012,8.16418605 7.51856625,8.84604651 C7.35143949,9.06390698 7.16581539,9.33953488 6.92730189,9.48204651 C6.91252261,9.50176744 6.89774332,9.52148837 6.88296404,9.54130233 C6.99655075,9.67162791 8.1943235,10.3502326 8.39054407,10.3992558 C8.69598263,10.0738605 9.00151414,9.74837209 9.3069527,9.42297674 C9.40055484,9.30465116 9.49415698,9.18623256 9.58775912,9.068 C9.92275624,8.92502326 10.2578463,8.78204651 10.5928435,8.63906977 C10.6026963,8.65386047 10.6125492,8.66865116 10.622402,8.68344186 C10.2281019,9.44874419 9.54741817,10.5273488 8.90781905,11.1833488 L8.90781905,11.2129302 C9.20340475,11.4790698 9.49908341,11.7454884 9.79466911,12.0116279 L9.82422768,12.0116279 C10.1247398,11.7207442 10.4253449,11.4297674 10.725857,11.1388837 C10.8736499,10.9811163 11.1693285,10.6655814 11.1693285,10.6655814 L11.9801443,10.6632558 L11.9762403,12.0705116 C11.9762403,12.0705116 9.91476242,12.0708837 8.86357415,12.0708837 L8.86357415,13.1484651 L11.9798654,13.1506047 C11.9798654,13.1506047 11.9783782,15.4974884 11.9783782,15.7836279 C11.7934048,15.832093 11.5541476,15.788093 11.4057971,15.7540465 C10.4349189,15.5315349 10.5897761,14.8389767 10.6962984,13.8163721 L8.5088713,13.8163721 C8.25576443,14.6002791 8.38143483,15.7416744 8.67144344,16.2126512 C8.91070055,16.6012093 9.07624713,16.8706047 9.58785207,17.100186 C9.98112977,17.2766512 10.478699,17.2925581 11.0511872,17.2924651 C12.6968931,17.2922791 14.0434812,17.0048372 15.1306417,16.4493953 C15.4522538,16.2849302 15.7759109,16.131814 16.0321781,15.9020465 L16.0913882,15.9020465 C16.1439987,16.1208372 16.3032246,16.9308837 16.4313117,17.0410233 C17.0026845,16.7945116 17.574429,16.547907 18.1458947,16.3014884 C17.7566139,15.34 17.3673331,14.3783256 16.9781453,13.4169302 C16.8462471,13.3938605 15.6116656,13.7886512 15.5443687,13.8755349 C15.628118,14.2009302 15.7118673,14.5264186 15.7956166,14.851814 C15.451882,15.0964651 15.028488,15.3591628 14.568843,15.4731163 C14.4792377,15.3774884 14.5245051,15.0404651 14.5245051,14.8666047 L14.5245051,13.1342326 L17.5857691,13.135907 L17.584096,12.0564651 L14.5332425,12.055907 L14.5328707,10.6618605 L17.584096,10.6635349 L17.584096,9.57106977 L12.2039714,9.57116279 C12.2039714,9.57116279 12.1929102,9.57153488 12.1744129,9.5267907 C12.4393246,9.16772093 12.7351891,8.85190698 12.9134701,8.40260465 C12.9084507,8.39274419 12.9035243,8.3827907 12.8985978,8.37302326 C12.6177914,8.29906977 12.336892,8.22502326 12.0561786,8.15106977 C12.0463257,8.1264186 12.0364729,8.10186047 12.026713,8.07711628 C12.5390615,7.9144186 13.051503,7.75172093 13.5638516,7.58902326 C15.0451263,7.1295814 17.4539639,6.83032558 18.1310225,8.21032558 C18.3997452,8.75776744 18.3232461,9.69776744 18.3231532,10.5030698 L18.3231532,14.6004651 C18.3232461,15.7128372 18.4346949,16.4466977 17.8276288,17.1065116 C17.3227164,17.5830698 16.725782,17.6546977 16.3048048,17.6475349 C15.8837346,17.6404651 15.3206345,17.475814 14.7610666,17.3516279 L14.7462873,17.3516279 C14.6680222,17.5786977 14.4609263,18.3533023 14.438525,18.6090233 C14.8764194,18.711814 15.3735239,18.780186 15.8547337,18.8604651 C16.3095453,18.9362791 16.9293458,18.9287442 17.3605477,18.8743256 C19.1381517,18.6498605 19.9503618,18.0636279 20.4663354,16.7895814 C21.1014729,14.7591628 20.9474523,8.99116279 20.3481011,7.91423256 Z M6.49554228,8.29888372 C8.30391329,7.90837209 8.07794825,5.43348837 5.96339506,5.4735814 C5.84023435,5.49832558 5.71707364,5.52288372 5.59381998,5.54753488 C5.13780003,5.70939535 4.76655182,6.03962791 4.60351493,6.49423256 C4.21386233,7.5812093 5.41897825,8.53134884 6.49554228,8.29888372 Z M6.87840942,10.6483721 C6.57297086,10.3533023 6.24866315,10.0577674 5.98142765,9.852 C5.72748421,9.65646512 5.05377189,9.01767442 4.76943332,8.94967442 C4.44921548,9.45748837 4.12890468,9.96548837 3.80868684,10.4733023 C3.98603826,10.5817674 4.16338968,10.6902326 4.3407411,10.7986977 C4.77389499,11.091814 5.233633,11.3565581 5.64327017,11.6099535 C5.97380563,11.8374884 6.24485214,12.0811163 6.38046835,12.3814884 C6.61098801,12.8634419 6.35090978,13.4420465 6.14399978,13.7571163 C5.58127153,14.6141395 4.81618791,15.3226047 4.10427254,16.0350698 C3.52778747,16.612093 3.02324684,17.055814 3.02324684,17.055814 C3.02324684,17.055814 3.33073033,17.2333023 3.46867033,17.3220465 C4.33488516,17.8577674 5.3625567,18.5726512 5.46405972,18.5497674 C6.10031259,17.0266977 6.90833979,15.7076279 7.44466982,14.0677209 C7.64841947,13.4448372 7.92290518,12.5156279 7.69601062,11.7453023 C7.56085917,11.2871628 7.23394882,10.9917209 6.87840942,10.6483721 Z" id="Combined-Shape"></path>
                    </g>
                </g>
            </g>
        </g>
    </g>
</svg>